<?xml version="1.0" standalone="no"?>
<!DOCTYPE svg PUBLIC "-//W3C//DTD SVG 20010904//EN"
 "http://www.w3.org/TR/2001/REC-SVG-20010904/DTD/svg10.dtd">
<svg version="1.0" xmlns="http://www.w3.org/2000/svg"
 width="150.000000pt" height="150.000000pt" viewBox="0 0 150.000000 150.000000"
 preserveAspectRatio="xMidYMid meet">
<metadata>
Created by potrace 1.11, written by Peter Selinger 2001-2013
</metadata>
<g transform="translate(0.000000,150.000000) scale(0.100000,-0.100000)"
fill="#000000" stroke="none">
<path d="M231 1105 c-39 -20 -56 -77 -22 -68 28 7 53 38 49 61 -3 19 -5 19
-27 7z"/>
<path d="M1260 1109 c0 -21 34 -68 51 -72 43 -11 22 57 -22 72 -20 7 -29 7
-29 0z"/>
<path d="M1352 1064 c-6 -11 -10 -23 -11 -29 0 -5 -11 -11 -23 -13 -47 -6 -52
-11 -33 -32 21 -23 63 -26 89 -7 22 16 24 63 3 84 -13 14 -16 13 -25 -3z"/>
<path d="M144 1058 c-37 -59 43 -121 89 -70 24 27 21 32 -17 32 -28 0 -35 4
-38 22 -4 25 -23 34 -34 16z"/>
<path d="M418 938 c-98 -136 -93 -126 -66 -147 12 -10 28 -20 33 -21 6 -2 15
-8 20 -15 13 -15 91 -75 98 -75 4 0 15 20 26 45 11 25 23 45 26 45 10 0 69
-43 73 -52 2 -4 8 -8 12 -8 5 0 23 -13 41 -30 18 -16 36 -27 41 -24 4 3 8 -2
8 -10 0 -8 19 -28 43 -45 72 -50 121 -101 108 -114 -23 -23 -9 -47 59 -96 47
-35 77 -50 92 -47 13 2 22 9 21 15 -2 6 4 11 12 11 8 0 28 14 45 31 27 29 34
48 33 87 -1 6 5 12 13 12 36 0 0 48 -76 99 -65 45 -86 50 -105 25 -11 -15 -14
-15 -38 1 -14 9 -32 13 -38 9 -7 -4 -9 -3 -6 3 3 5 -6 16 -21 25 -25 15 -33
18 -48 18 -4 0 -1 7 6 15 7 8 16 12 21 9 5 -3 30 13 56 35 43 36 48 38 60 23
7 -9 15 -32 19 -49 3 -18 9 -33 13 -33 12 0 111 72 111 81 0 5 7 9 15 9 8 0
15 4 15 9 0 5 9 11 20 14 28 7 25 18 -17 76 -21 27 -58 77 -82 111 -24 33 -48
60 -55 60 -6 0 -22 -10 -36 -23 -14 -13 -32 -26 -40 -29 -8 -3 -35 -21 -59
-38 l-45 -33 43 -38 42 -38 -66 -41 c-36 -23 -65 -46 -65 -51 0 -5 11 -15 25
-21 14 -6 25 -15 25 -20 0 -13 -16 -9 -41 10 -13 11 -46 32 -74 47 -27 16 -52
32 -55 36 -3 3 -18 13 -33 21 l-29 15 42 39 41 39 -28 23 c-15 13 -46 35 -68
49 -22 14 -46 32 -53 40 -7 7 -20 13 -27 13 -8 0 -47 -46 -87 -102z m102 38
c0 -2 -8 -10 -17 -17 -16 -13 -17 -12 -4 4 13 16 21 21 21 13z m521 -53 c13
-16 12 -17 -3 -4 -10 7 -18 15 -18 17 0 8 8 3 21 -13z m-531 -16 c0 -2 -10
-12 -22 -23 l-23 -19 19 23 c18 21 26 27 26 19z m561 -24 c13 -16 12 -17 -3
-4 -10 7 -18 15 -18 17 0 8 8 3 21 -13z m-10 -40 c13 -16 12 -17 -3 -4 -10 7
-18 15 -18 17 0 8 8 3 21 -13z m-521 -3 c0 -5 -2 -10 -4 -10 -3 0 -8 5 -11 10
-3 6 -1 10 4 10 6 0 11 -4 11 -10z m450 0 c0 -5 -4 -10 -10 -10 -5 0 -10 5
-10 10 0 6 5 10 10 10 6 0 10 -4 10 -10z m-307 -115 c-3 -9 -8 -14 -10 -11 -3
3 -2 9 2 15 9 16 15 13 8 -4z m27 -25 c0 -5 -2 -10 -4 -10 -3 0 -8 5 -11 10
-3 6 -1 10 4 10 6 0 11 -4 11 -10z m91 -47 c13 -16 12 -17 -3 -4 -10 7 -18 15
-18 17 0 8 8 3 21 -13z m-30 -10 c13 -16 12 -17 -3 -4 -10 7 -18 15 -18 17 0
8 8 3 21 -13z m34 -23 c3 -5 1 -10 -4 -10 -6 0 -11 5 -11 10 0 6 2 10 4 10 3
0 8 -4 11 -10z m262 -96 c32 -49 -13 -105 -72 -90 -50 13 -53 96 -3 115 31 11
57 3 75 -25z"/>
<path d="M101 982 c-12 -23 6 -63 37 -78 20 -10 21 -12 6 -18 -16 -6 -33 8
-34 27 0 4 -8 7 -18 7 -23 0 -26 -37 -6 -67 8 -13 25 -23 37 -23 34 0 69 28
65 53 -2 12 5 31 14 41 23 25 13 39 -22 33 -22 -5 -29 -1 -38 19 -14 29 -28
31 -41 6z"/>
<path d="M1392 988 c-7 -7 -12 -17 -12 -23 0 -7 -12 -10 -29 -7 -39 5 -51 -16
-21 -40 17 -14 20 -22 12 -27 -9 -6 -7 -15 9 -35 17 -22 28 -27 49 -22 24 4
27 2 23 -14 -4 -15 -9 -17 -23 -10 -44 24 -65 3 -33 -32 15 -16 15 -18 0 -18
-13 0 -14 -5 -5 -30 14 -41 42 -55 78 -40 29 12 43 41 33 66 -3 8 -9 11 -14 8
-5 -3 -9 -1 -9 5 0 5 5 13 10 16 9 5 8 45 -1 65 -1 3 -2 18 -3 35 -1 36 -34
49 -43 16 -6 -24 -5 -23 -28 -15 -13 5 -10 10 14 25 30 18 38 40 25 73 -7 19
-16 20 -32 4z m36 -248 c-7 -10 -13 -18 -13 -17 0 1 -7 10 -14 20 -12 15 -11
17 13 17 23 0 25 -2 14 -20z"/>
<path d="M60 820 c0 -39 31 -71 62 -62 22 5 22 5 6 -12 -16 -16 -19 -16 -34
-2 -8 9 -22 16 -30 16 -21 0 -17 -37 7 -61 34 -34 99 -6 99 43 0 10 -5 18 -11
18 -5 0 -3 10 5 22 9 12 16 26 16 30 0 12 -48 10 -55 -2 -4 -6 -15 0 -27 15
-26 33 -38 32 -38 -5z"/>
<path d="M150 682 c-8 -3 -20 -12 -26 -20 -9 -12 -12 -12 -23 2 -8 9 -21 16
-31 16 -22 0 -16 -38 8 -57 10 -8 11 -13 4 -13 -20 0 -13 -35 10 -57 26 -23
51 -22 79 3 22 20 26 64 6 64 -8 0 -22 -9 -32 -20 -10 -11 -22 -17 -26 -14
-15 9 -10 24 7 24 20 0 39 19 46 47 7 26 0 33 -22 25z"/>
<path d="M1354 675 c-9 -22 23 -65 47 -65 18 0 19 -3 10 -14 -11 -13 -15 -12
-32 5 -25 25 -39 24 -39 -4 0 -27 19 -54 40 -58 33 -6 70 11 72 34 2 41 3 46
11 53 4 4 7 20 7 35 0 23 -3 27 -17 22 -10 -4 -23 -13 -29 -22 -10 -13 -12
-13 -20 1 -14 22 -44 30 -50 13z"/>
<path d="M618 650 c-21 -15 -35 -29 -33 -32 2 -2 -9 -5 -25 -6 -21 -2 -30 2
-30 13 0 29 -45 14 -113 -36 -46 -34 -67 -55 -63 -65 3 -9 1 -12 -4 -9 -6 3
-10 1 -10 -5 0 -6 7 -13 15 -16 8 -4 13 -9 10 -13 -9 -16 37 -90 66 -104 17
-8 29 -18 27 -22 -2 -4 7 -10 20 -11 31 -5 156 85 160 115 2 15 0 21 -7 17
-15 -10 -14 0 5 40 9 19 21 34 26 34 5 0 25 12 44 27 23 17 32 29 25 36 -7 7
-16 6 -28 -3 -15 -12 -16 -12 -5 0 17 20 16 24 -15 46 l-28 21 -37 -27z m22
-24 c0 -2 -8 -10 -17 -17 -16 -13 -17 -12 -4 4 13 16 21 21 21 13z m-94 -101
c19 -30 9 -73 -22 -87 -54 -25 -110 25 -86 77 22 47 80 52 108 10z"/>
<path d="M177 542 c-10 -10 -17 -25 -17 -33 0 -11 -2 -11 -8 -1 -14 21 -52 24
-52 4 0 -26 13 -40 42 -47 21 -5 33 -1 52 18 13 14 23 33 21 43 -2 11 -4 22
-4 27 -2 13 -17 8 -34 -11z"/>
<path d="M1313 543 c-3 -9 -1 -29 5 -45 10 -26 8 -33 -13 -56 -13 -14 -22 -29
-19 -33 2 -4 -5 -10 -16 -14 -19 -6 -29 -35 -11 -35 13 0 81 78 81 94 0 9 7
12 19 9 25 -6 71 24 71 48 0 21 -12 24 -40 9 -15 -8 -21 -6 -29 9 -15 26 -40
34 -48 14z"/>
<path d="M186 461 c-11 -18 77 -112 91 -97 6 6 -68 105 -79 106 -4 0 -9 -4
-12 -9z"/>
</g>
</svg>
